<?xml version="1.0" standalone="no"?>
<!DOCTYPE svg PUBLIC "-//W3C//DTD SVG 20010904//EN"
 "http://www.w3.org/TR/2001/REC-SVG-20010904/DTD/svg10.dtd">
<svg version="1.0" xmlns="http://www.w3.org/2000/svg"
 width="100.000000pt" height="100.000000pt" viewBox="0 0 100.000000 100.000000"
 preserveAspectRatio="xMidYMid meet">
<metadata>
Created by potrace 1.11, written by Peter Selinger 2001-2013
</metadata>
<g transform="translate(0.000000,100.000000) scale(0.100000,-0.100000)"
fill="#000000" stroke="none">
<path d="M63 950 c-64 -39 -64 -39 -61 -469 3 -373 4 -390 23 -411 45 -50 47
-50 475 -50 443 0 442 0 480 63 19 30 20 53 20 405 0 413 -2 425 -62 462 -32
19 -49 20 -438 20 -384 0 -407 -1 -437 -20z m864 -30 c13 -8 26 -21 30 -30 3
-8 7 -184 8 -390 3 -409 1 -419 -54 -438 -30 -10 -809 -9 -831 1 -43 20 -45
34 -46 427 -1 227 3 384 9 397 21 47 39 49 464 48 331 0 402 -3 420 -15z"/>
<path d="M215 870 c-115 -10 -112 0 -112 -413 l0 -337 28 -1 c37 0 176 0 189
1 12 0 14 750 3 751 -34 4 -56 3 -108 -1z"/>
<path d="M440 863 c-8 -2 -24 -16 -34 -30 -18 -24 -19 -48 -19 -364 0 -186 2
-342 6 -345 8 -9 206 -9 214 0 5 5 8 516 4 662 -1 20 -11 41 -27 58 -22 22
-35 26 -78 25 -28 -1 -58 -3 -66 -6z"/>
<path d="M670 495 c0 -350 1 -375 18 -376 61 -3 192 0 200 5 5 3 9 145 9 346
l0 341 -27 30 c-27 28 -32 29 -114 29 l-86 0 0 -375z"/>
</g>
</svg>
