<?xml version="1.0" encoding="utf-8"?>
<!-- Generator: Adobe Illustrator 24.2.3, SVG Export Plug-In . SVG Version: 6.00 Build 0)  -->
<svg version="1.1" id="Layer_1" xmlns="http://www.w3.org/2000/svg" xmlns:xlink="http://www.w3.org/1999/xlink" x="0px" y="0px"
	 viewBox="0 0 623.6 248" style="enable-background:new 0 0 623.6 248;" xml:space="preserve">
<style type="text/css">
	.st0{fill:#FFFFFF;}
</style>
<g>
	<g>
		<path class="st0" d="M25.7,88c0-35.5,26.2-62.2,62.2-62.2c35.9,0,62.2,26.7,62.2,62.2s-26.2,62.2-62.2,62.2
			C52,150.2,25.7,123.5,25.7,88z M122.9,88c0-21.1-14.1-36.4-35-36.4s-35,15.3-35,36.4s14.1,36.4,35,36.4
			C108.8,124.5,122.9,109.2,122.9,88z"/>
		<path class="st0" d="M163.6,27.3h26.7v13.8c5.6-7.3,16.5-15.3,33.3-15.3c30.1,0,46.6,17.7,46.6,50v72.9h-26.7v-67
			c0-21.4-9-30.6-25.5-30.6c-18.5,0-27.7,12.6-27.7,30.6v67h-26.7L163.6,27.3L163.6,27.3z"/>
		<path class="st0" d="M283.8,88c0-34.5,26.5-62.2,60-62.2s60,27.7,60,62.2c0,3.2-0.2,6.3-0.7,9.2h-91.9
			c2.8,15.3,16.3,27.7,33.3,27.7c12,0,21.7-3.9,26.7-11.7h30.9c-8,22.1-30.9,36.9-57.6,36.9C310.2,150.2,283.8,122.5,283.8,88z
			 M375.4,74.4c-3.5-14.1-16.3-23.8-31.7-23.8c-15.4,0-28.1,9.7-31.7,23.8H375.4z"/>
	</g>
	<g>
		<rect x="476.4" y="27.3" class="st0" width="24.3" height="24.3"/>
		<rect x="427.9" y="27.3" class="st0" width="24.3" height="24.3"/>
		<rect x="500.7" y="51.6" class="st0" width="24.3" height="24.3"/>
		<rect x="525" y="75.9" class="st0" width="24.3" height="24.3"/>
		<rect x="549.3" y="100.2" class="st0" width="24.3" height="24.3"/>
		<rect x="573.6" y="124.5" class="st0" width="24.3" height="24.3"/>
		<rect x="573.6" y="27.3" class="st0" width="24.3" height="24.3"/>
		<rect x="549.3" y="51.6" class="st0" width="24.3" height="24.3"/>
		<rect x="525" y="75.9" class="st0" width="24.3" height="24.3"/>
		<rect x="427.9" y="75.9" class="st0" width="24.3" height="72.9"/>
		<rect x="500.7" y="100.2" class="st0" width="24.3" height="24.3"/>
		<rect x="476.4" y="124.5" class="st0" width="24.3" height="24.3"/>
	</g>
</g>
<g>
	<g>
		<path class="st0" d="M112.9,181.5c2.4-3.1,5.7-4.7,10-4.7c3.5,0,6.1,0.9,8.1,2.7c1.9,1.8,3.2,4.7,3.7,8.7h6.7
			c-0.5-5.3-2.4-9.4-5.6-12.4c-3.2-3-7.5-4.5-12.8-4.5c-4,0-7.6,0.9-10.6,2.8c-3.1,1.9-5.4,4.6-7.1,8.2c-1.7,3.5-2.5,7.7-2.5,12.3
			v4.8c0,7.1,1.8,12.8,5.4,17.1c3.6,4.3,8.3,6.4,14.3,6.4c5.5,0,9.9-1.4,13.2-4.3c3.3-2.9,5.3-7,5.9-12.3h-6.7
			c-0.6,4.1-2,7.1-3.9,8.7c-2,1.7-4.8,2.5-8.5,2.5c-4.1,0-7.3-1.6-9.6-4.8c-2.3-3.2-3.4-7.6-3.4-13v-4.9
			C109.3,189.1,110.5,184.6,112.9,181.5z M197.6,196.4c-0.1-3.8-1.4-6.7-3.8-8.9c-2.4-2.2-5.8-3.2-10.1-3.2c-2.7,0-5.2,0.5-7.5,1.5
			c-2.3,1-4.1,2.4-5.4,4.1c-1.3,1.7-2,3.5-2,5.4h6.4c0-1.6,0.8-3,2.3-4.2c1.5-1.2,3.5-1.7,5.7-1.7c2.6,0,4.6,0.7,5.9,2
			c1.3,1.3,2,3.1,2,5.3v2.9H185c-5.4,0-9.5,1.1-12.5,3.2c-3,2.2-4.4,5.2-4.4,9.1c0,3.2,1.2,5.8,3.5,7.9c2.4,2.1,5.4,3.1,9.1,3.1
			c4.1,0,7.7-1.5,10.6-4.6c0.2,1.9,0.5,3.2,0.9,3.9h6.7v-0.6c-0.9-2-1.3-4.8-1.3-8.2V196.4z M191.2,211.9c-0.8,1.7-2.1,3-3.9,4
			s-3.7,1.6-5.7,1.6c-2.1,0-3.8-0.6-5.1-1.7c-1.3-1.1-2-2.7-2-4.7c0-4.6,3.9-6.9,11.7-6.9h5V211.9z M249.7,203.3
			c-2-1-4.6-1.8-7.8-2.6c-3.2-0.7-5.4-1.5-6.6-2.2c-1.2-0.8-1.8-1.9-1.8-3.5c0-1.6,0.7-3,2-4c1.3-1,3.1-1.5,5.5-1.5
			c2.3,0,4.1,0.6,5.6,1.9c1.5,1.3,2.2,2.8,2.2,4.5h6.4c0-3.4-1.3-6.2-4-8.4c-2.6-2.2-6.1-3.3-10.3-3.3c-4,0-7.3,1.1-9.9,3.2
			c-2.6,2.1-3.9,4.7-3.9,7.8c0,1.8,0.5,3.4,1.4,4.8c0.9,1.3,2.3,2.5,4.2,3.5c1.9,1,4.5,1.8,7.7,2.5c3.2,0.7,5.5,1.5,6.8,2.5
			c1.3,1,2,2.3,2,4c0,1.6-0.7,2.9-2.2,3.9c-1.5,1-3.4,1.5-5.8,1.5c-2.6,0-4.7-0.6-6.3-1.9c-1.6-1.3-2.5-3-2.6-5.1h-6.4
			c0,2.2,0.7,4.3,2,6.2c1.3,1.9,3.1,3.4,5.4,4.4c2.3,1.1,4.9,1.6,7.9,1.6c4.3,0,7.7-1,10.4-3c2.7-2,4-4.7,4-8c0-2-0.5-3.7-1.4-5.1
			C253.1,205.5,251.7,204.3,249.7,203.3z M301.1,184.3c-4.5,0-8.2,1.7-11,5.2v-20.2h-6.4v53h6.4v-26.6c0.9-1.8,2.1-3.2,3.7-4.4
			c1.6-1.1,3.4-1.7,5.5-1.7c2.6,0,4.4,0.6,5.6,1.9c1.2,1.3,1.8,3.3,1.8,6v24.7h6.4v-24.7C313,188.7,309,184.3,301.1,184.3z
			 M342.9,222.3h6.4v-53h-6.4V222.3z M394.1,184.3c-3,0-5.7,0.8-8.3,2.5c-2.5,1.6-4.5,3.9-5.9,6.8s-2.1,6.2-2.1,9.9v1.2
			c0,5.6,1.6,10,4.8,13.3c3.2,3.3,7.3,5,12.4,5c6.3,0,11-2.4,14.1-7.2l-3.9-3c-1.2,1.5-2.5,2.7-4.1,3.7s-3.5,1.4-5.7,1.4
			c-3.2,0-5.8-1.1-7.9-3.4c-2.1-2.3-3.1-5.2-3.2-8.9h25.3v-2.7c0-6-1.3-10.5-4-13.7C402.7,185.9,398.9,184.3,394.1,184.3z
			 M403,200.2h-18.7c0.4-3.4,1.5-6,3.2-7.9c1.7-1.9,3.9-2.8,6.5-2.8c2.7,0,4.8,0.9,6.4,2.7c1.6,1.8,2.4,4.3,2.6,7.5V200.2z
			 M458.9,203.3c-2-1-4.6-1.8-7.8-2.6c-3.2-0.7-5.4-1.5-6.6-2.2c-1.2-0.8-1.8-1.9-1.8-3.5c0-1.6,0.7-3,2-4c1.3-1,3.1-1.5,5.5-1.5
			c2.3,0,4.1,0.6,5.6,1.9c1.5,1.3,2.2,2.8,2.2,4.5h6.4c0-3.4-1.3-6.2-4-8.4c-2.6-2.2-6.1-3.3-10.3-3.3c-4,0-7.3,1.1-9.9,3.2
			c-2.6,2.1-3.9,4.7-3.9,7.8c0,1.8,0.5,3.4,1.4,4.8c0.9,1.3,2.3,2.5,4.2,3.5c1.9,1,4.5,1.8,7.7,2.5c3.2,0.7,5.5,1.5,6.8,2.5
			c1.3,1,2,2.3,2,4c0,1.6-0.7,2.9-2.2,3.9c-1.5,1-3.4,1.5-5.8,1.5c-2.6,0-4.7-0.6-6.3-1.9c-1.6-1.3-2.5-3-2.6-5.1h-6.4
			c0,2.2,0.6,4.3,2,6.2c1.3,1.9,3.1,3.4,5.4,4.4c2.3,1.1,4.9,1.6,7.9,1.6c4.3,0,7.7-1,10.4-3c2.7-2,4-4.7,4-8c0-2-0.5-3.7-1.4-5.1
			C462.4,205.5,460.9,204.3,458.9,203.3z M519.6,206.9c-1-1.4-2.4-2.6-4.4-3.6c-2-1-4.6-1.8-7.8-2.6c-3.2-0.7-5.4-1.5-6.6-2.2
			c-1.2-0.8-1.8-1.9-1.8-3.5c0-1.6,0.7-3,2-4c1.3-1,3.1-1.5,5.5-1.5c2.3,0,4.1,0.6,5.6,1.9c1.5,1.3,2.2,2.8,2.2,4.5h6.4
			c0-3.4-1.3-6.2-4-8.4c-2.6-2.2-6.1-3.3-10.3-3.3c-4,0-7.3,1.1-9.9,3.2c-2.6,2.1-3.9,4.7-3.9,7.8c0,1.8,0.5,3.4,1.4,4.8
			c0.9,1.3,2.3,2.5,4.2,3.5c1.9,1,4.5,1.8,7.7,2.5c3.2,0.7,5.5,1.5,6.8,2.5c1.3,1,2,2.3,2,4c0,1.6-0.7,2.9-2.2,3.9
			c-1.5,1-3.4,1.5-5.8,1.5c-2.6,0-4.7-0.6-6.3-1.9c-1.6-1.3-2.5-3-2.6-5.1h-6.4c0,2.2,0.6,4.3,2,6.2c1.3,1.9,3.1,3.4,5.4,4.4
			c2.3,1.1,4.9,1.6,7.9,1.6c4.3,0,7.7-1,10.4-3c2.7-2,4-4.7,4-8C521,210,520.5,208.3,519.6,206.9z"/>
	</g>
</g>
</svg>
