<svg id="Layer_1" data-name="Layer 1" xmlns="http://www.w3.org/2000/svg" xmlns:xlink="http://www.w3.org/1999/xlink" viewBox="0 0 1070.5 119.81"><defs><style>.cls-1{fill:#cecece;}</style></defs><path d="M652.2,80.5a12.51,12.51,0,0,1,10.6-5.3c3.7,0,6.5,1,8.6,3s3.4,5.3,4,9.9h7.1c-.6-6-2.6-10.6-6-14s-8-5.1-13.7-5.1a20.23,20.23,0,0,0-11.3,3.2,19.68,19.68,0,0,0-7.5,9.2,33.47,33.47,0,0,0-2.7,13.9v5.5c0,8.1,1.9,14.5,5.7,19.3a18.45,18.45,0,0,0,15.2,7.2c5.8,0,10.5-1.6,14-4.9s5.6-7.9,6.3-13.9h-7.1c-.7,4.7-2.1,8-4.2,9.8s-5.1,2.8-9,2.8a11.43,11.43,0,0,1-10.2-5.5q-3.6-5.4-3.6-14.7V95.4C648.4,89.1,649.6,84,652.2,80.5Zm90.2,16.8c-.1-4.3-1.4-7.6-4-10s-6.2-3.6-10.8-3.6a19.45,19.45,0,0,0-8,1.7,13.92,13.92,0,0,0-5.7,4.7,10.47,10.47,0,0,0-2.1,6.1h6.8a5.76,5.76,0,0,1,2.5-4.7,9.46,9.46,0,0,1,6.1-1.9c2.8,0,4.9.7,6.3,2.2a8.44,8.44,0,0,1,2.1,6V101H729c-5.7,0-10.1,1.2-13.3,3.6a12.18,12.18,0,0,0-4.7,10.2,11.63,11.63,0,0,0,3.8,8.9,13.23,13.23,0,0,0,9.6,3.5,14.55,14.55,0,0,0,11.3-5.2,13.56,13.56,0,0,0,1,4.4h7.1V126a25.79,25.79,0,0,1-1.4-9.2V97.3Zm-6.8,17.5a10.3,10.3,0,0,1-4.2,4.6,11.39,11.39,0,0,1-6.1,1.8,7.84,7.84,0,0,1-5.5-1.9,6.78,6.78,0,0,1-2.1-5.3c0-5.2,4.2-7.8,12.5-7.8h5.3v8.6Zm62.2-9.7a36.76,36.76,0,0,0-8.2-2.9,25.18,25.18,0,0,1-7-2.5,4.41,4.41,0,0,1-1.9-3.9,5.68,5.68,0,0,1,2.1-4.5,9.1,9.1,0,0,1,5.8-1.7,8.78,8.78,0,0,1,6,2.1,6.54,6.54,0,0,1,2.4,5.1h6.8a12.23,12.23,0,0,0-4.2-9.5c-2.8-2.5-6.5-3.7-11-3.7A15.65,15.65,0,0,0,778,87.2a11,11,0,0,0-4.1,8.8,9.51,9.51,0,0,0,1.5,5.4,12.48,12.48,0,0,0,4.5,3.9,33.75,33.75,0,0,0,8.2,2.8c3.4.8,5.9,1.7,7.2,2.8a5.41,5.41,0,0,1,2.1,4.5,5.28,5.28,0,0,1-2.3,4.4,10.58,10.58,0,0,1-6.2,1.7,10.14,10.14,0,0,1-6.7-2.1,7.48,7.48,0,0,1-2.7-5.8h-6.8a12.74,12.74,0,0,0,2.1,7,14.59,14.59,0,0,0,5.7,5,18.86,18.86,0,0,0,8.4,1.8c4.5,0,8.2-1.1,11.1-3.4a11.24,11.24,0,0,0,4.3-9.1,10.65,10.65,0,0,0-1.5-5.8A17,17,0,0,0,797.8,105.1Zm54.7-21.5a14.45,14.45,0,0,0-11.8,5.9V66.7h-6.8v59.9h6.8v-30a11.84,11.84,0,0,1,3.9-4.9,9.82,9.82,0,0,1,5.8-1.9c2.7,0,4.7.7,6,2.2s1.9,3.7,2,6.7v27.9h6.8V98.7C865.1,88.7,860.9,83.6,852.5,83.6Zm44.5,43h6.8V66.7H897Zm54.4-43a14.85,14.85,0,0,0-8.8,2.8,18.51,18.51,0,0,0-6.3,7.7,26.68,26.68,0,0,0-2.3,11.2v1.3c0,6.3,1.7,11.3,5.1,15.1a16.81,16.81,0,0,0,13.2,5.6q10.05,0,15-8.1l-4.2-3.4a14.29,14.29,0,0,1-4.4,4.1,11.77,11.77,0,0,1-6.1,1.6,10.74,10.74,0,0,1-8.4-3.8c-2.2-2.6-3.3-5.9-3.4-10.1h26.9v-3c0-6.7-1.4-11.9-4.3-15.5S956.6,83.6,951.4,83.6Zm9.6,18.1H941a15.39,15.39,0,0,1,3.5-8.9,9,9,0,0,1,6.9-3.2,8.52,8.52,0,0,1,6.8,3c1.7,2,2.6,4.9,2.8,8.5Zm59.4,3.4a36.76,36.76,0,0,0-8.2-2.9,25.18,25.18,0,0,1-7-2.5,4.41,4.41,0,0,1-1.9-3.9,5.68,5.68,0,0,1,2.1-4.5,9.1,9.1,0,0,1,5.8-1.7,8.78,8.78,0,0,1,6,2.1,6.54,6.54,0,0,1,2.4,5.1h6.8a12.23,12.23,0,0,0-4.2-9.5c-2.8-2.5-6.5-3.7-11-3.7a15.65,15.65,0,0,0-10.6,3.6,11,11,0,0,0-4.1,8.8,9.51,9.51,0,0,0,1.5,5.4,12.48,12.48,0,0,0,4.5,3.9,33.75,33.75,0,0,0,8.2,2.8c3.4.8,5.9,1.7,7.2,2.8a5.7,5.7,0,0,1,2.1,4.5,5.28,5.28,0,0,1-2.3,4.4,10.58,10.58,0,0,1-6.2,1.7,10.14,10.14,0,0,1-6.7-2.1,7.48,7.48,0,0,1-2.7-5.8h-6.8a12.74,12.74,0,0,0,2.1,7,14.59,14.59,0,0,0,5.7,5,18.86,18.86,0,0,0,8.4,1.8c4.5,0,8.2-1.1,11.1-3.4a11.24,11.24,0,0,0,4.3-9.1,10.65,10.65,0,0,0-1.5-5.8A17,17,0,0,0,1020.4,105.1Zm64.5,4.1a11.77,11.77,0,0,0-4.7-4,36.76,36.76,0,0,0-8.2-2.9,25.18,25.18,0,0,1-7-2.5,4.41,4.41,0,0,1-1.9-3.9,5.68,5.68,0,0,1,2.1-4.5,9.1,9.1,0,0,1,5.8-1.7,8.78,8.78,0,0,1,6,2.1,6.54,6.54,0,0,1,2.4,5.1h6.8a12.23,12.23,0,0,0-4.2-9.5c-2.8-2.5-6.5-3.7-11-3.7a15.65,15.65,0,0,0-10.6,3.6,11,11,0,0,0-4.1,8.8,9.51,9.51,0,0,0,1.5,5.4,12.48,12.48,0,0,0,4.5,3.9,33.75,33.75,0,0,0,8.2,2.8c3.4.8,5.9,1.7,7.2,2.8a5.41,5.41,0,0,1,2.1,4.5,5.28,5.28,0,0,1-2.3,4.4,10.58,10.58,0,0,1-6.2,1.7,10.14,10.14,0,0,1-6.7-2.1,7.48,7.48,0,0,1-2.7-5.8h-6.8a12.74,12.74,0,0,0,2.1,7,14.59,14.59,0,0,0,5.7,5,18.86,18.86,0,0,0,8.4,1.8c4.5,0,8.2-1.1,11.1-3.4a11.24,11.24,0,0,0,4.3-9.1A11.37,11.37,0,0,0,1084.9,109.2Z" transform="translate(-16.2 -28.7)"/><rect class="cls-1" x="593.6" y="38" width="2.1" height="62.18"/><image width="1001" height="214" transform="translate(0 0) scale(0.56)" xlink:href="../../../../Projects/desq/Logo%20mit%20Name%20rechts_new.png"/></svg>