<?xml version="1.0" encoding="utf-8"?>
<!-- Generator: Adobe Illustrator 24.2.3, SVG Export Plug-In . SVG Version: 6.00 Build 0)  -->
<svg version="1.1" id="light" xmlns="http://www.w3.org/2000/svg" xmlns:xlink="http://www.w3.org/1999/xlink" x="0px" y="0px"
	 viewBox="0 0 512 512" style="enable-background:new 0 0 512 512;" xml:space="preserve">
<style type="text/css">
	.st0{fill-rule:evenodd;clip-rule:evenodd;fill:#0C72B5;}
</style>
<g>
	<g>
		<path class="st0" d="M255,5.6C117.1,5.6,5.2,117.4,5.2,255.4S117.1,505.2,255,505.2s249.8-111.8,249.8-249.8S392.9,5.6,255,5.6z
			 M255,484.2c-126.4,0-228.8-102.5-228.8-228.8S128.6,26.6,255,26.6S483.8,129,483.8,255.4S381.4,484.2,255,484.2z M381,159.4l0-48
			H202v169h-73v41h73v98h48v-97h78v-41h-76v-35h118v-48H252v-39H381z"/>
	</g>
</g>
</svg>
